<?xml version="1.0" encoding="UTF-8"?>
<svg version="1.1" xmlns="http://www.w3.org/2000/svg" viewBox="0 0 259 221">
<path d="M0 0 C2.47483954 0.10925801 4.94762052 0.22510507 7.4206543 0.37036133 C8.70359375 0.41773438 8.70359375 0.41773438 10.01245117 0.46606445 C18.83625325 0.93766968 18.83625325 0.93766968 22.1081543 4.18286133 C22.59643555 7.53833008 22.59643555 7.53833008 22.4206543 11.37036133 C22.37553711 12.64266602 22.33041992 13.9149707 22.28393555 15.22583008 C22.19692383 16.68956055 22.19692383 16.68956055 22.1081543 18.18286133 C19.7981543 18.51286133 17.4881543 18.84286133 15.1081543 19.18286133 C15.66277344 19.13162109 16.21739258 19.08038086 16.78881836 19.02758789 C19.31055805 18.80715979 21.83371458 18.61972116 24.3581543 18.43286133 C25.23084961 18.35165039 26.10354492 18.27043945 27.00268555 18.18676758 C30.77473017 17.92761947 33.30246868 17.76545793 36.7019043 19.52661133 C38.92293639 23.72189416 38.52792525 27.77068973 38.3581543 32.43286133 C38.34010742 33.3687207 38.32206055 34.30458008 38.3034668 35.26879883 C38.25641103 37.57453148 38.19069142 39.87817078 38.1081543 42.18286133 C37.1181543 42.51286133 36.1281543 42.84286133 35.1081543 43.18286133 C35.1081543 43.84286133 35.1081543 44.50286133 35.1081543 45.18286133 C31.4781543 45.51286133 27.8481543 45.84286133 24.1081543 46.18286133 C23.06395281 49.66353294 22.15041004 52.81664485 21.7331543 56.43286133 C21.1081543 59.18286133 21.1081543 59.18286133 19.36694336 60.85009766 C16.7085063 62.41866747 15.39169369 62.47208526 12.3425293 62.25708008 C11.45307617 62.20229492 10.56362305 62.14750977 9.6472168 62.09106445 C8.26663086 61.98181641 8.26663086 61.98181641 6.8581543 61.87036133 C5.92229492 61.80913086 4.98643555 61.74790039 4.0222168 61.68481445 C1.7161455 61.53186074 -0.58785104 61.36407083 -2.8918457 61.18286133 C-3.2218457 60.52286133 -3.5518457 59.86286133 -3.8918457 59.18286133 C-4.5518457 58.19286133 -5.2118457 57.20286133 -5.8918457 56.18286133 C-6.12231445 53.73754883 -6.12231445 53.73754883 -6.0793457 51.05786133 C-6.07290039 50.1684082 -6.06645508 49.27895508 -6.05981445 48.36254883 C-5.8918457 46.18286133 -5.8918457 46.18286133 -4.8918457 45.18286133 C-3.03897069 45.11059631 -1.18350693 45.09904913 0.6706543 45.12036133 C1.68256836 45.12938477 2.69448242 45.1384082 3.73706055 45.14770508 C4.91075195 45.16510742 4.91075195 45.16510742 6.1081543 45.18286133 C5.7781543 44.52286133 5.4481543 43.86286133 5.1081543 43.18286133 C-3.1418457 43.18286133 -11.3918457 43.18286133 -19.8918457 43.18286133 C-19.8918457 42.52286133 -19.8918457 41.86286133 -19.8918457 41.18286133 C-20.5518457 40.52286133 -21.2118457 39.86286133 -21.8918457 39.18286133 C-22.15063477 37.25927734 -22.15063477 37.25927734 -22.1574707 34.93676758 C-22.16004883 34.09952148 -22.16262695 33.26227539 -22.1652832 32.3996582 C-22.15754883 31.52374023 -22.14981445 30.64782227 -22.1418457 29.74536133 C-22.14958008 28.87331055 -22.15731445 28.00125977 -22.1652832 27.1027832 C-22.16270508 26.26424805 -22.16012695 25.42571289 -22.1574707 24.56176758 C-22.15521484 23.79421143 -22.15295898 23.02665527 -22.15063477 22.23583984 C-21.8918457 20.18286133 -21.8918457 20.18286133 -19.8918457 17.18286133 C-17.0715332 16.67114258 -17.0715332 16.67114258 -13.7668457 16.49536133 C-12.12329102 16.39674805 -12.12329102 16.39674805 -10.4465332 16.29614258 C-9.60348633 16.25875977 -8.76043945 16.22137695 -7.8918457 16.18286133 C-7.77067383 15.50739258 -7.64950195 14.83192383 -7.5246582 14.13598633 C-7.35708008 13.24395508 -7.18950195 12.35192383 -7.0168457 11.43286133 C-6.85442383 10.55114258 -6.69200195 9.66942383 -6.5246582 8.76098633 C-5.61809506 5.06758094 -4.34315317 0.41979891 0 0 Z M2.1081543 25.18286133 C2.1081543 26.17286133 2.1081543 27.16286133 2.1081543 28.18286133 C3.0981543 27.85286133 4.0881543 27.52286133 5.1081543 27.18286133 C5.1081543 26.52286133 5.1081543 25.86286133 5.1081543 25.18286133 C4.1181543 25.18286133 3.1281543 25.18286133 2.1081543 25.18286133 Z M8.1081543 30.18286133 C9.1081543 32.18286133 9.1081543 32.18286133 9.1081543 32.18286133 Z M11.1081543 31.18286133 C10.1181543 32.66786133 10.1181543 32.66786133 9.1081543 34.18286133 C9.90977221 36.85431669 9.90977221 36.85431669 11.1081543 39.18286133 C12.0981543 39.18286133 13.0881543 39.18286133 14.1081543 39.18286133 C14.45715988 35.46549491 14.45715988 35.46549491 12.6081543 32.37036133 C12.1131543 31.97848633 11.6181543 31.58661133 11.1081543 31.18286133 Z " fill="#000000" transform="translate(53.891845703125,54.817138671875)"/>
<path d="M0 0 C0.33 0.99 0.66 1.98 1 3 C3.01508358 3.73323796 3.01508358 3.73323796 5 4 C5 4.66 5 5.32 5 6 C5.99 6.33 6.98 6.66 8 7 C7.67 6.01 7.34 5.02 7 4 C8.0725 4.020625 9.145 4.04125 10.25 4.0625 C13.78006421 4.14516436 13.78006421 4.14516436 16.25 3.4375 C18 3 18 3 21 4 C21 3.01 21 2.02 21 1 C22.65 1 24.3 1 26 1 C25.67 1.99 25.34 2.98 25 4 C27.39719432 4.67958603 27.39719432 4.67958603 30 5 C30.66 4.34 31.32 3.68 32 3 C37.56818182 3.56818182 37.56818182 3.56818182 39 5 C40.33641852 4.67925956 41.66869885 4.34135927 43 4 C48.46090381 3.03112997 51.76502902 2.77513734 57 5 C57 8.96 57 12.92 57 17 C55.68 16.67 54.36 16.34 53 16 C52.505 12.535 52.505 12.535 52 9 C51.67 9 51.34 9 51 9 C50.67 11.64 50.34 14.28 50 17 C48.68 17 47.36 17 46 17 C45.93941406 16.36191406 45.87882812 15.72382812 45.81640625 15.06640625 C45.73261719 14.24011719 45.64882812 13.41382812 45.5625 12.5625 C45.48128906 11.73878906 45.40007812 10.91507813 45.31640625 10.06640625 C45.21069185 8.01337975 45.21069185 8.01337975 44 7 C43.67 10.3 43.34 13.6 43 17 C41.68 17 40.36 17 39 17 C38.34 16.34 37.68 15.68 37 15 C37 15.66 37 16.32 37 17 C35.906875 16.814375 34.81375 16.62875 33.6875 16.4375 C30.06375867 15.7421932 30.06375867 15.7421932 27 17 C25.33385392 17.04165365 23.66614608 17.04165365 22 17 C21.01 17 20.02 17 19 17 C16.66666667 17 14.33333333 17 12 17 C11.67 16.01 11.34 15.02 11 14 C8.7522025 16.05233685 7.9977758 17.00667261 7 20 C6.01 20.33 5.02 20.66 4 21 C3.34 20.67 2.68 20.34 2 20 C2.309375 19.1646875 2.309375 19.1646875 2.625 18.3125 C3.10695211 15.340462 2.26565028 13.68020059 1 11 C0.34 12.98 -0.32 14.96 -1 17 C-8.42608696 17.48695652 -8.42608696 17.48695652 -11.0625 15.25 C-12.19687423 12.52750185 -11.89069895 11.75306948 -11 9 C-11.04125 7.989375 -11.0825 6.97875 -11.125 5.9375 C-11 3 -11 3 -10 1.125 C-6.74686316 -0.70488947 -3.68609891 -0.18128355 0 0 Z M-7 3 C-6.67 3.66 -6.34 4.32 -6 5 C-5.34 5 -4.68 5 -4 5 C-4 4.34 -4 3.68 -4 3 C-4.99 3 -5.98 3 -7 3 Z M11 5 C11.33 5.66 11.66 6.32 12 7 C12.33 6.34 12.66 5.68 13 5 C12.34 5 11.68 5 11 5 Z M16 7 C16 7.66 16 8.32 16 9 C16.99 8.67 17.98 8.34 19 8 C18.01 7.67 17.02 7.34 16 7 Z M20 7 C20 9.31 20 11.62 20 14 C20.66 14 21.32 14 22 14 C22 11.69 22 9.38 22 7 C21.34 7 20.68 7 20 7 Z M25 7 C25 8.65 25 10.3 25 12 C25.99 12.33 26.98 12.66 28 13 C28 11.02 28 9.04 28 7 C27.01 7 26.02 7 25 7 Z M32 7 C31.67 7.66 31.34 8.32 31 9 C32.32 9 33.64 9 35 9 C35 8.34 35 7.68 35 7 C34.01 7 33.02 7 32 7 Z M6 8 C5.67 8.66 5.34 9.32 5 10 C5.66 10 6.32 10 7 10 C6.67 9.34 6.34 8.68 6 8 Z M-5 10 C-5 10.99 -5 11.98 -5 13 C-4.34 12.01 -3.68 11.02 -3 10 C-3.66 10 -4.32 10 -5 10 Z M9 10 C10 12 10 12 10 12 Z M12 10 C12 10.66 12 11.32 12 12 C12.99 12.33 13.98 12.66 15 13 C15 12.34 15 11.68 15 11 C14.01 10.67 13.02 10.34 12 10 Z M31 11 C31 11.33 31 11.66 31 12 C33.31 12 35.62 12 38 12 C38 11.67 38 11.34 38 11 C35.69 11 33.38 11 31 11 Z " fill="#000000" transform="translate(113,97)"/>
<path d="M0 0 C0.89847656 0.07863281 1.79695312 0.15726562 2.72265625 0.23828125 C3.81900391 0.46064453 3.81900391 0.46064453 4.9375 0.6875 C5.2675 1.3475 5.5975 2.0075 5.9375 2.6875 C6.2675 2.0275 6.5975 1.3675 6.9375 0.6875 C9.25906597 0.28020772 11.5943787 -0.05688677 13.9375 -0.3125 C14.5975 0.6775 15.2575 1.6675 15.9375 2.6875 C16.5975 2.0275 17.2575 1.3675 17.9375 0.6875 C20.62589385 0.41758094 23.22891936 0.60012643 25.9375 0.6875 C25.504375 1.46673828 25.504375 1.46673828 25.0625 2.26171875 C22.17017168 7.64915468 22.17017168 7.64915468 21.9375 13.6875 C22.5975 13.6875 23.2575 13.6875 23.9375 13.6875 C24.71522405 16.02067216 25.36165568 18.30185923 25.9375 20.6875 C22.5625 20.875 22.5625 20.875 18.9375 20.6875 C18.2775 19.6975 17.6175 18.7075 16.9375 17.6875 C13.8629644 18.4638932 13.8629644 18.4638932 11.9375 20.6875 C9.60077016 20.3788753 7.26756911 20.04293427 4.9375 19.6875 C3.26207024 19.97354898 1.59364657 20.30531233 -0.0625 20.6875 C-3.25 20.875 -3.25 20.875 -6.0625 20.6875 C-9.62206766 17.12793234 -11.49212073 14.85630387 -11.5 9.6875 C-11.40175832 6.17665247 -11.30841446 5.0235831 -9.1875 2.125 C-5.74103471 -0.2064324 -4.12346162 -0.39751357 0 0 Z M-2.0625 5.6875 C-2.3925 6.3475 -2.7225 7.0075 -3.0625 7.6875 C-1.4125 7.6875 0.2375 7.6875 1.9375 7.6875 C1.2775 7.0275 0.6175 6.3675 -0.0625 5.6875 C-0.7225 5.6875 -1.3825 5.6875 -2.0625 5.6875 Z M7.9375 5.6875 C6.76047795 7.6688661 6.76047795 7.6688661 6.9375 10.0625 C6.9375 12.48962247 6.62251551 14.37557267 5.9375 16.6875 C6.9275 16.6875 7.9175 16.6875 8.9375 16.6875 C9.2675 15.6975 9.5975 14.7075 9.9375 13.6875 C10.5975 13.0275 11.2575 12.3675 11.9375 11.6875 C11.61708603 9.08469432 11.61708603 9.08469432 10.9375 6.6875 C9.9475 6.3575 8.9575 6.0275 7.9375 5.6875 Z M-5.0625 11.6875 C-4.7325 12.6775 -4.4025 13.6675 -4.0625 14.6875 C-3.0725 15.0175 -2.0825 15.3475 -1.0625 15.6875 C-1.0625 15.0275 -1.0625 14.3675 -1.0625 13.6875 C-0.11375 13.72875 0.835 13.77 1.8125 13.8125 C5.03994856 14.03723818 5.03994856 14.03723818 6.9375 11.6875 C2.9775 11.6875 -0.9825 11.6875 -5.0625 11.6875 Z " fill="#000000" transform="translate(198.0625,70.3125)"/>
<path d="M0 0 C0.85722656 0.09667969 1.71445313 0.19335938 2.59765625 0.29296875 C4.9375 0.8125 4.9375 0.8125 7.9375 2.8125 C7.9375 3.4725 7.9375 4.1325 7.9375 4.8125 C8.5975 4.8125 9.2575 4.8125 9.9375 4.8125 C9.6075 3.4925 9.2775 2.1725 8.9375 0.8125 C10.5875 0.8125 12.2375 0.8125 13.9375 0.8125 C15.87459638 4.07003924 16.17465445 6.46859928 16.1328125 10.234375 C16.12636719 11.25917969 16.11992187 12.28398438 16.11328125 13.33984375 C16.09652344 14.40332031 16.07976562 15.46679688 16.0625 16.5625 C16.05347656 17.64144531 16.04445312 18.72039062 16.03515625 19.83203125 C16.01161305 22.49241278 15.97872799 25.15234336 15.9375 27.8125 C13.9575 27.4825 11.9775 27.1525 9.9375 26.8125 C9.9375 20.8725 9.9375 14.9325 9.9375 8.8125 C8.2875 9.1425 6.6375 9.4725 4.9375 9.8125 C1.62050548 9.42226535 0.1107987 8.3117935 -2.0625 5.8125 C-2.0625 6.8025 -2.0625 7.7925 -2.0625 8.8125 C-1.0725 9.1425 -0.0825 9.4725 0.9375 9.8125 C0.9375 10.4725 0.9375 11.1325 0.9375 11.8125 C1.9275 11.4825 2.9175 11.1525 3.9375 10.8125 C6.0625 11.5 6.0625 11.5 7.9375 12.8125 C9.04370162 15.87634328 8.92335692 18.36380325 8.5 21.5625 C8.39816406 22.36171875 8.29632813 23.1609375 8.19140625 23.984375 C8.06572266 24.88929687 8.06572266 24.88929687 7.9375 25.8125 C3.46759449 28.119548 -1.13723963 28.84378195 -6.0625 27.8125 C-8.63051645 26.02302247 -9.44156716 24.62211693 -11.0625 21.8125 C-10.875 19.4375 -10.875 19.4375 -10.0625 17.8125 C-8.0825 17.8125 -6.1025 17.8125 -4.0625 17.8125 C-3.7325 19.1325 -3.4025 20.4525 -3.0625 21.8125 C-0.58983235 21.46805119 -0.58983235 21.46805119 1.9375 20.8125 C2.2675 20.1525 2.5975 19.4925 2.9375 18.8125 C-0.1248824 17.79170587 -3.17034324 17.09668801 -6.3203125 16.41015625 C-8.0625 15.8125 -8.0625 15.8125 -9.0625 13.8125 C-10.0087561 10.9737317 -10.16380195 9.68962131 -9.875 6.8125 C-9.81957031 6.131875 -9.76414062 5.45125 -9.70703125 4.75 C-8.12134091 -0.01668125 -4.51140853 -0.57838571 0 0 Z M7.9375 5.8125 C7.9375 6.4725 7.9375 7.1325 7.9375 7.8125 C8.5975 7.4825 9.2575 7.1525 9.9375 6.8125 C9.2775 6.4825 8.6175 6.1525 7.9375 5.8125 Z " fill="#000000" transform="translate(112.0625,63.1875)"/>
<path d="M0 0 C1.98 0 3.96 0 6 0 C6 9.24 6 18.48 6 28 C3.69 28 1.38 28 -1 28 C-0.67 26.02 -0.34 24.04 0 22 C-0.226875 22.61875 -0.45375 23.2375 -0.6875 23.875 C-2.45498713 26.73664583 -3.77014312 27.13870483 -7 28 C-9.3320802 28.07646165 -11.66845878 28.09143299 -14 28 C-14 30.31 -14 32.62 -14 35 C-16.31 35 -18.62 35 -21 35 C-21 25.76 -21 16.52 -21 7 C-18.6075 6.9175 -16.215 6.835 -13.75 6.75 C-13.00331055 6.71358398 -12.25662109 6.67716797 -11.48730469 6.63964844 C-8.10785995 6.58329406 -6.33967197 6.73681046 -3.640625 8.828125 C-2.36987369 10.51035769 -1.16944638 12.24583043 0 14 C0 9.38 0 4.76 0 0 Z M-13 13 C-13.33 13.66 -13.66 14.32 -14 15 C-14.33 15 -14.66 15 -15 15 C-15 16.65 -15 18.3 -15 20 C-13.02 20.66 -11.04 21.32 -9 22 C-6.65026182 20.10244856 -6.65026182 20.10244856 -6.875 16.875 C-6.91625 15.92625 -6.9575 14.9775 -7 14 C-9.07553648 13.4465236 -10.84365964 13 -13 13 Z M-1 15 C-1 16.98 -1 18.96 -1 21 C-0.67 21 -0.34 21 0 21 C0 19.02 0 17.04 0 15 C-0.33 15 -0.66 15 -1 15 Z " fill="#000000" transform="translate(180,63)"/>
<path d="M0 0 C3.84956114 0.06110415 7.65484991 0.07737632 11.5 -0.125 C14.9375 0.0625 14.9375 0.0625 16.8125 1.375 C19.40989453 5.2710918 19.05440812 9.26760814 19 13.75 C18.99548828 14.45189453 18.99097656 15.15378906 18.98632812 15.87695312 C18.97456927 17.60550538 18.95663454 19.33401365 18.9375 21.0625 C16.9575 20.7325 14.9775 20.4025 12.9375 20.0625 C12.6075 16.1025 12.2775 12.1425 11.9375 8.0625 C10.9475 8.0625 9.9575 8.0625 8.9375 8.0625 C8.6075 12.0225 8.2775 15.9825 7.9375 20.0625 C5.9575 20.3925 3.9775 20.7225 1.9375 21.0625 C1.88851562 20.21945313 1.83953125 19.37640625 1.7890625 18.5078125 C1.67691406 16.86425781 1.67691406 16.86425781 1.5625 15.1875 C1.49289063 14.09695312 1.42328125 13.00640625 1.3515625 11.8828125 C1.20496509 8.93203526 1.20496509 8.93203526 -1.0625 7.0625 C-2.41341528 9.76433055 -2.40108058 12.18058206 -2.625 15.1875 C-2.70878906 16.28320312 -2.79257813 17.37890625 -2.87890625 18.5078125 C-2.93949219 19.35085937 -3.00007812 20.19390625 -3.0625 21.0625 C-5.0425 20.7325 -7.0225 20.4025 -9.0625 20.0625 C-9.0625 13.7925 -9.0625 7.5225 -9.0625 1.0625 C-5.65639462 0.38127892 -3.31457849 -0.05930657 0 0 Z " fill="#000000" transform="translate(139.0625,69.9375)"/>
<path d="" fill="#000000" transform="translate(0,0)"/>
<path d="" fill="#000000" transform="translate(0,0)"/>
<path d="" fill="#000000" transform="translate(0,0)"/>
<path d="" fill="#000000" transform="translate(0,0)"/>
<path d="" fill="#000000" transform="translate(0,0)"/>
<path d="" fill="#000000" transform="translate(0,0)"/>
<path d="" fill="#000000" transform="translate(0,0)"/>
<path d="" fill="#000000" transform="translate(0,0)"/>
<path d="" fill="#000000" transform="translate(0,0)"/>
<path d="" fill="#000000" transform="translate(0,0)"/>
<path d="" fill="#000000" transform="translate(0,0)"/>
<path d="" fill="#000000" transform="translate(0,0)"/>
<path d="" fill="#000000" transform="translate(0,0)"/>
<path d="" fill="#000000" transform="translate(0,0)"/>
<path d="" fill="#000000" transform="translate(0,0)"/>
<path d="" fill="#000000" transform="translate(0,0)"/>
<path d="" fill="#000000" transform="translate(0,0)"/>
<path d="" fill="#000000" transform="translate(0,0)"/>
<path d="" fill="#000000" transform="translate(0,0)"/>
<path d="" fill="#000000" transform="translate(0,0)"/>
<path d="" fill="#000000" transform="translate(0,0)"/>
<path d="" fill="#000000" transform="translate(0,0)"/>
<path d="" fill="#000000" transform="translate(0,0)"/>
<path d="" fill="#000000" transform="translate(0,0)"/>
<path d="" fill="#000000" transform="translate(0,0)"/>
<path d="" fill="#000000" transform="translate(0,0)"/>
<path d="" fill="#000000" transform="translate(0,0)"/>
<path d="" fill="#000000" transform="translate(0,0)"/>
<path d="" fill="#000000" transform="translate(0,0)"/>
<path d="" fill="#000000" transform="translate(0,0)"/>
<path d="" fill="#000000" transform="translate(0,0)"/>
<path d="" fill="#000000" transform="translate(0,0)"/>
<path d="" fill="#000000" transform="translate(0,0)"/>
<path d="" fill="#000000" transform="translate(0,0)"/>
<path d="" fill="#000000" transform="translate(0,0)"/>
<path d="" fill="#000000" transform="translate(0,0)"/>
<path d="" fill="#000000" transform="translate(0,0)"/>
<path d="" fill="#000000" transform="translate(0,0)"/>
<path d="" fill="#000000" transform="translate(0,0)"/>
<path d="" fill="#000000" transform="translate(0,0)"/>
<path d="" fill="#000000" transform="translate(0,0)"/>
<path d="" fill="#000000" transform="translate(0,0)"/>
<path d="" fill="#000000" transform="translate(0,0)"/>
<path d="" fill="#000000" transform="translate(0,0)"/>
<path d="" fill="#000000" transform="translate(0,0)"/>
<path d="" fill="#000000" transform="translate(0,0)"/>
<path d="" fill="#000000" transform="translate(0,0)"/>
<path d="" fill="#000000" transform="translate(0,0)"/>
<path d="" fill="#000000" transform="translate(0,0)"/>
<path d="" fill="#000000" transform="translate(0,0)"/>
<path d="" fill="#000000" transform="translate(0,0)"/>
<path d="" fill="#000000" transform="translate(0,0)"/>
<path d="" fill="#000000" transform="translate(0,0)"/>
<path d="" fill="#000000" transform="translate(0,0)"/>
<path d="" fill="#000000" transform="translate(0,0)"/>
<path d="" fill="#000000" transform="translate(0,0)"/>
<path d="" fill="#000000" transform="translate(0,0)"/>
<path d="" fill="#000000" transform="translate(0,0)"/>
<path d="" fill="#000000" transform="translate(0,0)"/>
<path d="" fill="#000000" transform="translate(0,0)"/>
<path d="" fill="#000000" transform="translate(0,0)"/>
<path d="" fill="#000000" transform="translate(0,0)"/>
<path d="" fill="#000000" transform="translate(0,0)"/>
<path d="" fill="#000000" transform="translate(0,0)"/>
<path d="" fill="#000000" transform="translate(0,0)"/>
<path d="" fill="#000000" transform="translate(0,0)"/>
<path d="" fill="#000000" transform="translate(0,0)"/>
<path d="" fill="#000000" transform="translate(0,0)"/>
<path d="" fill="#000000" transform="translate(0,0)"/>
<path d="" fill="#000000" transform="translate(0,0)"/>
</svg>
