<?xml version="1.0" standalone="no"?>
<!DOCTYPE svg PUBLIC "-//W3C//DTD SVG 20010904//EN"
 "http://www.w3.org/TR/2001/REC-SVG-20010904/DTD/svg10.dtd">
<svg version="1.0" xmlns="http://www.w3.org/2000/svg"
 width="1024.000000pt" height="1024.000000pt" viewBox="0 0 1024.000000 1024.000000"
 preserveAspectRatio="xMidYMid meet">

<g transform="translate(0.000000,1024.000000) scale(0.100000,-0.100000)"
fill="#000000" stroke="none">
<path d="M0 5120 l0 -5120 5120 0 5120 0 0 5120 0 5120 -5120 0 -5120 0 0
-5120z m2777 1359 c75 -25 126 -77 148 -153 22 -74 21 -398 -1 -420 -12 -13
-39 -16 -133 -16 -130 0 -285 -31 -371 -75 -87 -45 -172 -137 -154 -167 4 -7
3 -8 -4 -4 -14 8 -30 -22 -38 -71 -3 -21 -8 -41 -11 -46 -2 -4 1 -33 7 -64 17
-80 79 -141 170 -167 187 -53 196 -58 205 -121 9 -57 -19 -118 -80 -174 -62
-57 -136 -91 -234 -107 -106 -17 -703 -20 -780 -3 -64 14 -120 65 -152 139
-22 52 -23 68 -27 336 -3 266 -2 284 18 345 43 128 88 150 314 155 176 4 190
7 224 38 46 41 52 66 52 220 0 123 3 154 21 201 26 69 59 110 113 137 67 34
79 36 370 37 259 1 284 0 343 -20z m2208 -284 c58 -28 73 -102 30 -149 -13
-14 -28 -26 -32 -27 -4 0 -19 -3 -33 -5 -53 -10 -110 39 -110 95 0 36 24 74
55 87 39 17 51 17 90 -1z m-416 -33 c30 -12 64 -31 77 -43 12 -11 27 -19 32
-15 5 3 9 0 9 -7 0 -7 11 -30 26 -52 14 -22 29 -58 33 -81 l6 -41 -47 -6 c-94
-13 -121 -9 -133 19 -7 14 -16 23 -21 19 -5 -3 -13 0 -17 6 -4 8 -3 9 4 5 25
-15 11 14 -15 32 -119 83 -283 32 -283 -87 0 -66 63 -104 271 -166 104 -30
173 -74 215 -136 27 -40 31 -57 33 -116 1 -40 -5 -86 -14 -112 -8 -24 -12 -47
-9 -52 3 -5 2 -8 -3 -7 -5 2 -26 -14 -47 -35 -22 -20 -64 -49 -95 -65 -52 -25
-64 -27 -186 -27 -119 0 -135 3 -185 26 -30 14 -70 38 -88 54 -37 31 -76 102
-86 156 -6 35 -5 37 25 43 17 3 57 6 89 6 52 0 58 -2 64 -23 17 -68 96 -117
186 -116 61 1 126 21 123 38 -2 6 2 10 9 9 15 -4 38 40 38 75 0 72 -33 96
-210 153 -80 25 -160 55 -178 65 -19 11 -38 16 -44 13 -6 -4 -8 -3 -5 3 4 6
-5 21 -20 34 -41 38 -63 96 -63 170 0 79 17 125 67 180 38 42 89 72 158 96 59
19 216 11 284 -15z m2751 -467 l0 -495 -85 0 -85 0 0 495 0 495 85 0 85 0 0
-495z m-1679 207 c24 -11 55 -31 68 -45 13 -15 28 -24 34 -20 6 3 7 1 3 -5 -4
-7 -5 -16 -2 -20 3 -5 27 12 54 38 32 31 64 51 95 59 98 28 220 -6 266 -74 46
-68 49 -95 51 -372 l1 -263 -86 0 -85 0 0 239 c0 233 -1 239 -23 272 -13 19
-31 33 -40 33 -9 -1 -15 2 -12 6 3 4 -2 11 -11 14 -33 12 -82 5 -115 -17 -60
-40 -64 -57 -67 -314 l-3 -233 -85 0 -84 0 0 241 c0 163 -4 247 -12 262 -17
34 -47 56 -84 63 -43 8 -73 0 -109 -27 -50 -40 -55 -68 -55 -314 l0 -225 -90
0 -90 0 0 350 0 350 90 0 90 0 0 -40 0 -40 28 29 c63 69 183 92 273 53z m1210
-9 c25 -11 63 -38 85 -59 21 -22 43 -37 49 -36 5 2 7 1 3 -3 -3 -4 6 -34 22
-67 70 -147 39 -341 -71 -448 -56 -54 -115 -80 -198 -87 -85 -7 -144 12 -202
64 l-37 34 1 -176 2 -175 -87 0 -88 0 0 480 0 480 88 0 89 0 -2 -46 -3 -46 37
36 c60 58 104 75 191 72 48 -2 91 -10 121 -23z m1085 -6 c116 -59 183 -185
184 -349 l0 -28 -261 0 -261 0 7 -32 c24 -114 143 -176 248 -130 25 11 52 31
61 44 15 23 19 24 78 15 103 -15 102 -14 74 -67 -28 -53 -97 -109 -164 -133
-63 -23 -192 -22 -251 2 -60 24 -147 103 -175 160 -26 51 -46 140 -46 207 0
63 35 165 75 217 31 41 124 106 160 111 8 1 18 6 22 10 4 5 51 6 104 3 75 -4
106 -10 145 -30z m-2906 -337 l0 -350 -87 0 -88 0 0 350 0 350 88 0 87 0 0
-350z m3324 302 c87 -138 110 -172 116 -165 4 5 37 54 75 111 l69 102 93 0
c51 0 93 -2 93 -5 0 -3 -26 -42 -57 -87 -102 -143 -164 -233 -169 -244 -3 -6
23 -51 58 -100 90 -125 178 -253 178 -259 0 -3 -44 -5 -97 -5 l-98 1 -68 105
c-37 58 -72 102 -77 99 -6 -3 -7 1 -4 9 14 36 -8 9 -82 -99 l-78 -115 -98 0
-98 0 42 59 c24 33 49 67 56 78 7 10 44 62 82 116 l71 98 -48 72 c-61 92 -74
107 -86 100 -6 -3 -7 -1 -3 5 4 6 -18 48 -48 92 l-55 80 102 0 102 0 29 -48z
m-4872 -83 c21 -7 50 -25 65 -41 l28 -29 3 -321 c4 -398 -4 -438 -100 -504
-41 -29 -43 -29 -222 -34 -163 -5 -185 -8 -216 -27 -60 -37 -68 -67 -73 -253
-5 -189 -6 -195 -45 -258 -22 -36 -43 -54 -88 -77 l-59 -30 -310 0 c-350 0
-376 4 -436 72 -54 63 -61 92 -70 293 -7 167 -6 186 9 198 13 10 43 12 121 8
225 -12 416 46 519 159 71 78 96 135 100 230 3 71 1 84 -20 115 -31 45 -78 76
-144 95 -30 8 -79 22 -110 31 -74 21 -104 51 -104 103 0 118 96 213 260 257
114 31 809 41 892 13z m5099 -562 c-10 -9 -11 -8 -5 6 3 10 9 15 12 12 3 -3 0
-11 -7 -18z m-4214 -361 c38 -19 79 -70 88 -108 7 -27 5 -28 -29 -28 -32 0
-38 4 -48 30 -34 99 -228 82 -228 -20 0 -44 34 -73 115 -99 146 -47 205 -100
200 -176 -1 -16 -3 -38 -4 -47 -2 -35 -59 -85 -117 -103 -104 -33 -221 0 -262
74 -31 55 -29 71 11 71 27 0 35 -5 44 -31 9 -23 17 -30 28 -25 9 3 13 2 10 -4
-10 -16 32 -30 95 -30 55 0 65 3 91 29 66 66 26 128 -112 175 -46 16 -99 38
-118 49 -91 54 -73 199 31 250 42 21 160 17 205 -7z m1073 -86 l0 -60 45 0
c43 0 45 -1 45 -30 0 -29 -2 -30 -45 -30 l-45 0 0 -133 c0 -147 4 -157 57
-157 31 0 33 -2 33 -35 0 -35 0 -35 -45 -35 -35 0 -52 6 -75 28 -35 30 -39 56
-40 234 l0 97 -31 3 c-26 2 -32 8 -35 31 -2 25 0 27 32 27 l34 0 0 60 0 60 35
0 35 0 0 -60z m-243 -74 c36 -18 63 -52 63 -78 0 -29 -56 -24 -83 7 -26 30
-80 41 -121 26 -19 -8 -26 -16 -22 -27 3 -9 2 -12 -5 -8 -7 4 -9 -3 -7 -17 3
-27 68 -63 128 -73 19 -3 52 -19 73 -36 34 -29 37 -35 37 -85 0 -48 -3 -56
-34 -83 -85 -74 -264 -38 -289 58 -4 17 0 20 29 20 25 0 41 -7 57 -26 45 -52
158 -39 165 19 5 41 -10 53 -101 82 -101 33 -137 66 -137 125 0 49 40 98 90
110 49 12 120 6 157 -14z m701 -9 c43 -28 72 -85 79 -153 l6 -54 -166 0 -166
0 10 -32 c5 -18 23 -46 39 -63 27 -27 37 -30 93 -30 47 0 67 5 84 19 27 24 83
29 83 8 0 -25 -65 -80 -111 -92 -54 -15 -137 -1 -176 30 -105 82 -120 249 -32
340 61 63 184 75 257 27z m415 22 c21 -6 46 -22 58 -39 l22 -28 24 28 c42 51
130 64 193 29 67 -38 75 -63 78 -246 l4 -163 -35 0 -35 0 -4 149 c-3 133 -5
153 -24 178 -27 36 -84 49 -124 28 -55 -28 -60 -46 -60 -207 l0 -148 -35 0
-35 0 0 145 c0 158 -8 190 -53 214 -26 14 -92 6 -82 -10 4 -5 0 -6 -8 -4 -7 3
-22 -4 -33 -16 -17 -18 -19 -39 -22 -175 l-3 -154 -35 0 -34 0 0 210 0 210 36
0 c33 0 36 -2 32 -25 -3 -14 -1 -25 3 -25 9 0 13 15 10 33 -1 5 3 6 8 3 5 -3
22 1 37 9 34 18 65 19 117 4z m692 -8 c47 -21 61 -36 70 -74 7 -25 5 -27 -23
-27 -20 0 -40 10 -60 30 -21 21 -40 30 -62 30 -39 0 -90 -26 -90 -46 0 -36 22
-52 103 -78 106 -34 142 -67 142 -131 0 -94 -108 -148 -229 -114 -46 13 -96
59 -96 88 0 17 6 21 34 21 26 0 36 -5 41 -19 8 -26 67 -45 113 -36 48 9 62 21
62 56 0 35 -20 49 -115 79 -42 14 -81 35 -99 52 -25 26 -28 34 -23 74 6 54 35
89 86 102 56 15 102 13 146 -7z m-2360 -158 c33 -89 63 -156 67 -150 3 7 32
81 63 165 l57 152 34 0 c19 0 34 -5 34 -10 0 -6 -46 -126 -102 -268 -56 -141
-101 -261 -99 -267 1 -5 -1 -7 -5 -3 -4 4 -19 -1 -34 -12 -17 -12 -44 -20 -69
-20 -39 0 -41 2 -41 30 0 27 3 30 30 30 35 0 76 35 85 73 4 16 -8 61 -38 138
-102 257 -117 297 -117 303 0 4 17 6 37 4 l38 -3 60 -162z"/>
<path d="M6625 5750 c-75 -24 -119 -96 -119 -195 0 -79 18 -123 68 -167 129
-112 310 -1 293 181 -6 71 -39 134 -83 162 -38 23 -116 32 -159 19z"/>
<path d="M7705 5768 c-48 -26 -82 -69 -99 -125 -7 -21 -7 -21 169 -23 190 -1
184 -3 162 55 -19 49 -41 74 -80 90 -42 17 -123 19 -152 3z"/>
<path d="M5743 4643 c-31 -6 -79 -56 -85 -88 l-5 -25 128 0 128 0 -10 32 c-18
65 -81 98 -156 81z"/>
</g>
</svg>
